<?xml version="1.0" encoding="UTF-8"?>
<svg width="512" height="512" version="1.1" viewBox="0 0 512 512" xmlns="http://www.w3.org/2000/svg">
 <g fill-rule="evenodd">
  <path d="m471.95 253.05c0 120.9-98.01 218.9-218.9 218.9-120.9 0-218.9-98.01-218.9-218.9 0-120.9 98.01-218.9 218.9-218.9 120.9 0 218.9 98.01 218.9 218.9" fill="#919191"/>
  <path d="m256 1c-140.83 0-255 114.17-255 255s114.17 255 255 255 255-114.17 255-255-114.17-255-255-255m8.827 44.931c120.9 0 218.9 98 218.9 218.9s-98 218.9-218.9 218.9-218.93-98-218.93-218.9 98.03-218.9 218.93-218.9" fill-opacity=".067"/>
  <g fill-opacity=".129">
   <path d="m256 4.433c-138.94 0-251.57 112.63-251.57 251.57s112.63 251.57 251.57 251.57 251.57-112.63 251.57-251.57-112.63-251.57-251.57-251.57m5.885 38.556c120.9 0 218.9 98 218.9 218.9s-98 218.9-218.9 218.9-218.93-98-218.93-218.9 98.03-218.9 218.93-218.9"/>
   <path d="m256 8.356c-136.77 0-247.64 110.87-247.64 247.64s110.87 247.64 247.64 247.64 247.64-110.87 247.64-247.64-110.87-247.64-247.64-247.64m2.942 31.691c120.9 0 218.9 98 218.9 218.9s-98 218.9-218.9 218.9-218.93-98-218.93-218.9 98.03-218.9 218.93-218.9"/>
  </g>
 </g>
 <path d="m260.72 89.706-29.959 15.487-5.5765 22.814-1.113 0.934-15.801 22.432-45.874 25.658-15.458 11.217-19.825 17.986-5.4859 45.506 29.09 43.574-28.721 71.846 147.76 111.76c168.04-15.278 199.89-112.58 204.4-226.34" opacity=".25"/>
 <path d="m253.04 7.859c-135.42 0-245.19 109.78-245.19 245.19 0 135.42 109.78 245.19 245.19 245.19 135.42 0 245.19-109.78 245.19-245.19 0-135.42-109.78-245.19-245.19-245.19zm0 26.297c120.9 0 218.9 98 218.9 218.9s-98 218.9-218.9 218.9-218.93-98-218.93-218.9 98.03-218.9 218.93-218.9z" fill="#ffffff" fill-rule="evenodd" stroke="#000000" stroke-opacity=".31" stroke-width="4.904"/>
 <path d="m232.92 89.71-24.656 61.663a138.72 86.703 0 0 0-97.834 82.842 138.72 86.703 0 0 0 40.281 61.099l-28.721 71.846h63.582l18.672-50.915a138.72 86.703 0 0 0 44.91 4.6739 138.72 86.703 0 0 0 138.72-86.703 138.72 86.703 0 0 0-34.704-57.328 17.341 17.341 0 0 0 0.0231-0.47397 17.341 17.341 0 0 0-17.341-17.341 17.341 17.341 0 0 0-17.341 17.341 17.341 17.341 0 0 0 17.341 17.341 17.341 17.341 0 0 0 10.07-3.2287 115.6 69.362 0 0 1 18.831 37.91 115.6 69.362 0 0 1-115.6 69.362 115.6 69.362 0 0 1-36.826-3.6126l36.826-100.43 32.784 89.39c18.514-3.5413 34.586-9.8729 46.557-17.815 1.4703-0.97569 2.7932-1.9964 4.1319-3.0029l-71.914-172.62zm-30.052 75.166-43.013 107.59a115.6 69.362 0 0 1-26.305-44.029 115.6 69.362 0 0 1 69.317-63.559zm148.23 141.75c-15.216 9.1485-33.177 16.154-53.038 20.546l14.676 39.987h63.582z" fill="#f2f6f8" stroke-linejoin="round" stroke-opacity=".45871" stroke-width="23.121"/>
</svg>
