<?xml version="1.0" encoding="UTF-8"?>
<svg width="512" height="512" version="1.1" viewBox="0 0 512 512" xmlns="http://www.w3.org/2000/svg">
 <g fill-rule="evenodd">
  <path d="m471.95 253.05c0 120.9-98.01 218.9-218.9 218.9-120.9 0-218.9-98.01-218.9-218.9 0-120.9 98.01-218.9 218.9-218.9 120.9 0 218.9 98.01 218.9 218.9" fill="#737475"/>
  <path d="m256 1c-140.83 0-255 114.17-255 255s114.17 255 255 255 255-114.17 255-255-114.17-255-255-255m8.827 44.931c120.9 0 218.9 98 218.9 218.9s-98 218.9-218.9 218.9-218.93-98-218.93-218.9 98.03-218.9 218.93-218.9" fill-opacity=".067"/>
  <g fill-opacity=".129">
   <path d="m256 4.433c-138.94 0-251.57 112.63-251.57 251.57s112.63 251.57 251.57 251.57 251.57-112.63 251.57-251.57-112.63-251.57-251.57-251.57m5.885 38.556c120.9 0 218.9 98 218.9 218.9s-98 218.9-218.9 218.9-218.93-98-218.93-218.9 98.03-218.9 218.93-218.9"/>
   <path d="m256 8.356c-136.77 0-247.64 110.87-247.64 247.64s110.87 247.64 247.64 247.64 247.64-110.87 247.64-247.64-110.87-247.64-247.64-247.64m2.942 31.691c120.9 0 218.9 98 218.9 218.9s-98 218.9-218.9 218.9-218.93-98-218.93-218.9 98.03-218.9 218.93-218.9"/>
  </g>
 </g>
 <path d="m330.31 111.7-27.752 3.223-2.236 0.568 11.867 11.867-46.14-12.02h-3.336l-23.995 12.662-4.5322 7.6786 1.3361 11.595 3.325 24.229-55.207 7.2847-37.208-3.4551-35.899 10.214-19.516 2.409 133.11 155.5-63.949 20.249 104.58 113.15c106.33-13.626 117.54-12.459 161.92-95.295 35.996-45.356 47.97-50.462 59.57-114.5l-133.95-149.73-21.998-5.6353" opacity=".25"/>
 <path d="m253.04 7.859c-135.42 0-245.19 109.78-245.19 245.19 0 135.42 109.78 245.19 245.19 245.19 135.42 0 245.19-109.78 245.19-245.19 0-135.42-109.78-245.19-245.19-245.19zm0 26.297c120.9 0 218.9 98 218.9 218.9s-98 218.9-218.9 218.9-218.93-98-218.93-218.9 98.03-218.9 218.93-218.9z" fill="#ffffff" fill-rule="evenodd" stroke="#000000" stroke-opacity=".31" stroke-width="4.904"/>
 <path d="m299.6 100.88c-16.677 0-30.518 4.3427-41.47 11.65-1.5518-0.96262-3.3932-1.4826-5.5354-1.4826-9.49 0-22.799 11.14-23.524 28.005-0.092 0.99805-0.15117 2.0174-0.15117 3.0575 0 2.1929 0.36087 4.0605 0.76019 5.8882h-59.659l58.899 23.557h-107.05a17.669 17.669 0 0 0-16.636-11.776 17.669 17.669 0 0 0-17.669 17.669 17.669 17.669 0 0 0 17.669 17.669c46.334 55.176 53.008 94.237 123.69 94.237 23.559 0 39.73-9.8209 58.899-23.557l11.781 11.776-11.781-5.8882c-6.7694 11.78-22.114 29.45-58.899 29.45-23.559 0-37.769-5.907-47.118-11.781 0 23.559 11.781 11.78 11.781 29.45 0 16.642-17.523 32.389-33.406 44.909 32.123 27.971 73.268 43.398 115.86 43.439 38.226-0.0589 75.404-12.519 105.95-35.502-11.281-33.765-22.434-46.636-23.33-109.88 6.3135 2.3055 11.617 4.0277 11.617 4.0277 0-58.898 11.781-47.122 11.781-94.241 0-39.034-36.916-70.676-82.456-70.676z" fill="#ffffff" stroke-width="11.78" style="paint-order:normal"/>
</svg>
