<?xml version="1.0" encoding="UTF-8"?>
<svg width="512" height="512" version="1.1" viewBox="0 0 512 512" xmlns="http://www.w3.org/2000/svg">
 <g fill-rule="evenodd">
  <path d="m471.95 253.05c0 120.9-98.01 218.9-218.9 218.9-120.9 0-218.9-98.01-218.9-218.9 0-120.9 98.01-218.9 218.9-218.9 120.9 0 218.9 98.01 218.9 218.9" fill="#6e6e6e"/>
  <path d="m256 1c-140.83 0-255 114.17-255 255s114.17 255 255 255 255-114.17 255-255-114.17-255-255-255m8.827 44.931c120.9 0 218.9 98 218.9 218.9s-98 218.9-218.9 218.9-218.93-98-218.93-218.9 98.03-218.9 218.93-218.9" fill-opacity=".067"/>
  <g fill-opacity=".129">
   <path d="m256 4.433c-138.94 0-251.57 112.63-251.57 251.57s112.63 251.57 251.57 251.57 251.57-112.63 251.57-251.57-112.63-251.57-251.57-251.57m5.885 38.556c120.9 0 218.9 98 218.9 218.9s-98 218.9-218.9 218.9-218.93-98-218.93-218.9 98.03-218.9 218.93-218.9"/>
   <path d="m256 8.356c-136.77 0-247.64 110.87-247.64 247.64s110.87 247.64 247.64 247.64 247.64-110.87 247.64-247.64-110.87-247.64-247.64-247.64m2.942 31.691c120.9 0 218.9 98 218.9 218.9s-98 218.9-218.9 218.9-218.93-98-218.93-218.9 98.03-218.9 218.93-218.9"/>
  </g>
 </g>
 <path d="m427.13 175.94-25.645 21.877-24.236-21.877-24.656 34.068-38.298-34.068-15.954 30.216-28.946-23.835-26.439 4.3192-26.034 12.845 2.8774 29.222-58.09-46.594-55.286 9.5428-10.54 87.043 230.99 186.06c89.754-50.494 165.83-113.15 148.29-259.09" opacity=".25"/>
 <path d="m253.04 7.859c-135.42 0-245.19 109.78-245.19 245.19 0 135.42 109.78 245.19 245.19 245.19 135.42 0 245.19-109.78 245.19-245.19 0-135.42-109.78-245.19-245.19-245.19zm0 26.297c120.9 0 218.9 98 218.9 218.9s-98 218.9-218.9 218.9-218.93-98-218.93-218.9 98.03-218.9 218.93-218.9z" fill="#ffffff" fill-rule="evenodd" stroke="#000000" stroke-opacity=".31" stroke-width="4.904"/>
 <g fill="#ffffff" stroke-width=".85376" aria-label="OSU!">
  <path d="m184.03 232.66q0 13.151-3.1127 23.967-3.0348 10.816-9.338 18.52-6.3031 7.7038-15.952 11.906-9.5714 4.2021-22.645 4.2021-13.073 0-22.722-4.2021-9.5714-4.2021-15.875-11.906-6.2253-7.7038-9.338-18.52-3.0348-10.894-3.0348-24.123t3.0348-23.967q3.1127-10.816 9.4158-18.442 6.3031-7.626 15.875-11.75 9.6492-4.2021 22.8-4.2021 13.073 0 22.645 4.2021 9.5714 4.1243 15.797 11.828 6.3031 7.626 9.338 18.442 3.1127 10.739 3.1127 24.045zm-77.194 0q0 8.9489 1.5563 16.108 1.5563 7.0813 4.7468 12.062 3.2683 4.9024 8.1707 7.5482 4.9024 2.6458 11.672 2.6458 6.9257 0 11.828-2.6458 4.9802-2.6458 8.0929-7.5482 3.1905-4.9802 4.669-12.062 1.5563-7.1591 1.5563-16.108 0-8.9489-1.5563-16.03-1.4785-7.1591-4.669-12.139-3.1127-4.9802-8.0151-7.626-4.9024-2.6458-11.75-2.6458-6.77 0-11.75 2.6458-4.9802 2.6458-8.2485 7.626-3.1905 4.9802-4.7468 12.139-1.5563 7.0813-1.5563 16.03z"/>
  <path d="m269.86 258.11q0 7.626-2.6458 13.774-2.5679 6.0697-7.626 10.427-4.9802 4.2799-12.295 6.6144-7.2369 2.3345-16.653 2.3345-8.2485 0-15.952-1.712-7.626-1.712-14.163-5.1359v-22.411q3.7352 1.7898 7.5482 3.5017 3.813 1.6342 7.7038 2.957 3.9686 1.3229 7.8595 2.101 3.9686 0.77817 7.8594 0.77817 3.9686 0 6.77-0.85599 2.8792-0.93379 4.5912-2.4901 1.7898-1.6341 2.5679-3.813 0.85598-2.2567 0.85598-4.9024 0-3.1905-1.4007-5.6028-1.3229-2.4901-3.813-4.5912-2.4123-2.1789-5.914-4.2021-3.4239-2.0232-7.7038-4.2799-3.5796-1.8676-8.0151-4.5134-4.4355-2.6458-8.4042-6.5366-3.8908-3.9686-6.5366-9.4936-2.6458-5.6028-2.6458-13.384 0-7.626 2.4901-13.618 2.5679-6.0697 7.2369-10.194 4.669-4.2021 11.283-6.3809 6.6922-2.1789 14.941-2.1789 4.1243 0 8.0151 0.54471 3.9686 0.54472 7.7816 1.5563 3.8908 1.0116 7.7816 2.4901t8.0151 3.4239l-7.7816 18.754q-3.5017-1.6341-6.5366-2.8792-3.0348-1.2451-5.914-2.101t-5.6806-1.2451q-2.7236-0.4669-5.525-0.4669-6.0697 0-9.338 3.2683-3.1905 3.1905-3.1905 8.5598 0 2.8792 0.9338 5.1359 1.0116 2.1789 3.1127 4.1243 2.1789 1.9454 5.525 3.9686 3.4239 2.0232 8.2485 4.5912 5.8362 3.1127 10.739 6.381 4.9024 3.1905 8.4042 7.1591 3.5796 3.8908 5.525 8.8711t1.9454 11.672z"/>
  <path d="m377.25 175.94v73.614q0 8.8711-2.7236 16.497-2.6458 7.626-8.1707 13.229-5.4472 5.6028-13.696 8.7932t-19.376 3.1905q-10.505 0-18.598-2.957-8.0151-3.0348-13.462-8.5598-5.3693-5.525-8.1707-13.229-2.8014-7.7816-2.8014-17.275v-73.303h24.045v71.513q0 6.3031 1.2451 10.816 1.2451 4.4355 3.6574 7.3147 2.4901 2.8014 6.1475 4.1243t8.5598 1.3229q10.194 0 14.707-5.914 4.5912-5.914 4.5912-17.82v-71.358z"/>
  <path d="m423.16 251.96h-18.987l-3.9686-76.027h26.924zm-23.267 26.613q0-3.6574 1.0116-6.1475 1.0894-2.5679 2.957-4.1243 1.8676-1.5563 4.3577-2.2567 2.4901-0.70035 5.3693-0.70035 2.7236 0 5.1359 0.70035 2.4901 0.70035 4.3577 2.2567 1.8676 1.5563 2.957 4.1243 1.0894 2.4901 1.0894 6.1475 0 3.5017-1.0894 5.9919-1.0894 2.4901-2.957 4.1243-1.8676 1.6342-4.3577 2.3345-2.4123 0.77816-5.1359 0.77816-2.8792 0-5.3693-0.77816-2.4901-0.70035-4.3577-2.3345-1.8676-1.6341-2.957-4.1243-1.0116-2.4901-1.0116-5.9919z"/>
 </g>
</svg>
