<?xml version="1.0" encoding="UTF-8"?>
<svg width="512" height="512" version="1.1" viewBox="0 0 512 512" xmlns="http://www.w3.org/2000/svg">
 <g fill-rule="evenodd">
  <path d="m471.95 253.05c0 120.9-98.01 218.9-218.9 218.9-120.9 0-218.9-98.01-218.9-218.9 0-120.9 98.01-218.9 218.9-218.9 120.9 0 218.9 98.01 218.9 218.9" fill="#1793d1" style="fill:#646464"/>
  <path d="m256 1c-140.83 0-255 114.17-255 255s114.17 255 255 255 255-114.17 255-255-114.17-255-255-255m8.827 44.931c120.9 0 218.9 98 218.9 218.9s-98 218.9-218.9 218.9-218.93-98-218.93-218.9 98.03-218.9 218.93-218.9" fill-opacity=".067"/>
  <g fill-opacity=".129">
   <path d="m256 4.433c-138.94 0-251.57 112.63-251.57 251.57s112.63 251.57 251.57 251.57 251.57-112.63 251.57-251.57-112.63-251.57-251.57-251.57m5.885 38.556c120.9 0 218.9 98 218.9 218.9s-98 218.9-218.9 218.9-218.93-98-218.93-218.9 98.03-218.9 218.93-218.9"/>
   <path d="m256 8.356c-136.77 0-247.64 110.87-247.64 247.64s110.87 247.64 247.64 247.64 247.64-110.87 247.64-247.64-110.87-247.64-247.64-247.64m2.942 31.691c120.9 0 218.9 98 218.9 218.9s-98 218.9-218.9 218.9-218.93-98-218.93-218.9 98.03-218.9 218.93-218.9"/>
  </g>
 </g>
 <path d="m327.01 144.84-41.216 29.274-35.31-34.491-18.376 8.2614-19.453-1.3273-14.997-4.6776c-48.403 46.063-16.527 29.379-47.485 59.521l45.217 35.144-50.494-13.363 5.6233 56.891-4.1567 70.584 158.26 115.23c89.398-35.736 137.51 26.378 137.34-105.68 13.443-21.171 22.316-50.176 30.284-80.734" opacity=".25"/>
 <path d="m253.04 7.859c-135.42 0-245.19 109.78-245.19 245.19 0 135.42 109.78 245.19 245.19 245.19 135.42 0 245.19-109.78 245.19-245.19 0-135.42-109.78-245.19-245.19-245.19zm0 26.297c120.9 0 218.9 98 218.9 218.9s-98 218.9-218.9 218.9-218.93-98-218.93-218.9 98.03-218.9 218.93-218.9z" fill="#ffffff" fill-rule="evenodd" stroke="#000000" stroke-opacity=".31" stroke-width="4.904"/>
 <g transform="matrix(9.0131 0 0 9.0131 42.913 39.9)">
  <!-- color: #4d9bb9 -->
  <path d="m11.965 20c-0.57 0.027-0.965 0.156-0.965 0.766v12.773c0 0.809 0.699 1.457 1.574 1.457h22.824c0.879 0 1.602-0.648 1.602-1.457v-12.773c0-0.813-0.723-0.766-1.602-0.766h-22.824c-0.219 0-0.422-0.012-0.609 0" style="fill:#f9f9f9"/>
  <path d="m15.05 13.402-3.25 4.598h11.195v-7h-5.508c-0.813 0-2.438 2.402-2.438 2.402m9.938-2.402v7h11.188l-3.25-4.598s-1.625-2.402-2.441-2.402" style="fill:#f9f9f9"/>
 </g>
</svg>
