<?xml version="1.0" encoding="UTF-8" standalone="no"?>
<svg
   height="512"
   viewBox="0 0 512 512"
   width="512"
   version="1.1"
   id="svg7"
   sodipodi:docname="zen-browser.svg"
   inkscape:version="1.4.2 (ebf0e940d0, 2025-05-08)"
   xmlns:inkscape="http://www.inkscape.org/namespaces/inkscape"
   xmlns:sodipodi="http://sodipodi.sourceforge.net/DTD/sodipodi-0.dtd"
   xmlns="http://www.w3.org/2000/svg"
   xmlns:svg="http://www.w3.org/2000/svg">
  <defs
     id="defs7" />
  <sodipodi:namedview
     id="namedview7"
     pagecolor="#ffffff"
     bordercolor="#000000"
     borderopacity="0.25"
     inkscape:showpageshadow="2"
     inkscape:pageopacity="0.0"
     inkscape:pagecheckerboard="0"
     inkscape:deskcolor="#d1d1d1"
     inkscape:zoom="0.78515625"
     inkscape:cx="-148.37811"
     inkscape:cy="150.92537"
     inkscape:window-width="1896"
     inkscape:window-height="1005"
     inkscape:window-x="10"
     inkscape:window-y="61"
     inkscape:window-maximized="1"
     inkscape:current-layer="svg7" />
  <path
     d="m471.95 253.05c0 120.9-98.01 218.9-218.9 218.9-120.9 0-218.9-98.01-218.9-218.9 0-120.9 98.01-218.9 218.9-218.9 120.9 0 218.9 98.01 218.9 218.9"
     fill="#1793d1"
     fill-rule="evenodd"
     id="path1"
     style="fill:#747474;fill-opacity:1" />
  <path
     d="m256 1c-140.83 0-255 114.17-255 255 0 140.83 114.17 255 255 255 140.83 0 255-114.17 255-255 0-140.83-114.17-255-255-255m8.827 44.931c120.9 0 218.9 98 218.9 218.9 0 120.9-98 218.9-218.9 218.9-120.9 0-218.93-98-218.93-218.9 0-120.9 98.03-218.9 218.93-218.9"
     fill-opacity=".067"
     fill-rule="evenodd"
     id="path2" />
  <g
     fill-opacity=".129"
     fill-rule="evenodd"
     id="g4">
    <path
       d="m256 4.433c-138.94 0-251.57 112.63-251.57 251.57 0 138.94 112.63 251.57 251.57 251.57 138.94 0 251.57-112.63 251.57-251.57 0-138.94-112.63-251.57-251.57-251.57m5.885 38.556c120.9 0 218.9 98 218.9 218.9 0 120.9-98 218.9-218.9 218.9-120.9 0-218.93-98-218.93-218.9 0-120.9 98.03-218.9 218.93-218.9"
       id="path3" />
    <path
       d="m256 8.356c-136.77 0-247.64 110.87-247.64 247.64 0 136.77 110.87 247.64 247.64 247.64 136.77 0 247.64-110.87 247.64-247.64 0-136.77-110.87-247.64-247.64-247.64m2.942 31.691c120.9 0 218.9 98 218.9 218.9 0 120.9-98 218.9-218.9 218.9-120.9 0-218.93-98-218.93-218.9 0-120.9 98.03-218.9 218.93-218.9"
       id="path4" />
  </g>
  <path
     d="m 330.30836,111.70481 c -11.198,0.1 -21.02,1.705 -27.752,3.223 -0.849,0.192 -1.489,0.381 -2.236,0.568 l 11.867,11.867 c -12.395,-6.969 -1.49778,-38.305515 -24.07545,-28.680984 16.43257,-17.12928 -18.00639,-4.977265 -19.09639,-4.953265 -16.356,0.358 12.08461,4.788741 -13.66727,0.503985 -30.44057,-5.064887 -22.80855,4.673672 -23.17755,4.986672 l -15.90071,6.614122 c -8.754,-2.926 -25.45763,10.06047 -46.25164,10.07847 -1.835,10e-4 -3.666,0.051 -5.498,0.152 -14.657,0.81 -28.757,4.965 -38.859,15.277 -10.1,10.313 -16.548,27.05 -15.13,54.21 0.286,5.357 -3.70416,15.94263 0.25484,32.94263 3.958,17 0.98536,50.9892 7.74736,68.7032 6.535,17.12 -13.61173,44.15769 -5.474,63.94099 55.91773,62.17217 146.53412,124.65671 146.53412,124.65671 133.73692,-18.5691 216.18138,-98.98847 212.64924,-202.83842 -1.91045,-56.16985 0.55345,-31.7919 -2.00955,-45.1909 L 387.06157,124.53353 c -17.2191,-21.37208 -36.41821,-13.00572 -56.75821,-12.82872"
     opacity="0.25"
     id="path5"
     sodipodi:nodetypes="ccccccsccccccccccscsc" />
  <path
     d="m253.04 7.859c-135.42 0-245.19 109.78-245.19 245.19 0 135.42 109.78 245.19 245.19 245.19 135.42 0 245.19-109.78 245.19-245.19 0-135.42-109.78-245.19-245.19-245.19zm0 26.297c120.9 0 218.9 98 218.9 218.9 0 120.9-98 218.9-218.9 218.9-120.9 0-218.93-98-218.93-218.9 0-120.9 98.03-218.9 218.93-218.9z"
     fill="#ffffff"
     fill-rule="evenodd"
     stroke="#000000"
     stroke-opacity=".31"
     stroke-width="4.904"
     id="path7" />
  <path
     d="M 258.77114,70.049751 A 178.02487,178.02487 0 0 0 80.746269,248.07463 178.02487,178.02487 0 0 0 258.77114,426.09951 178.02487,178.02487 0 0 0 436.79602,248.07463 178.02487,178.02487 0 0 0 258.77114,70.049751 Z m 0,35.604979 a 142.4199,142.4199 0 0 1 142.4199,142.4199 142.4199,142.4199 0 0 1 -142.4199,142.4199 142.4199,142.4199 0 0 1 -142.4199,-142.4199 142.4199,142.4199 0 0 1 142.4199,-142.4199 z m 0,23.73665 A 118.68325,118.68325 0 0 0 140.08789,248.07463 118.68325,118.68325 0 0 0 258.77114,366.75788 118.68325,118.68325 0 0 0 377.45439,248.07463 118.68325,118.68325 0 0 0 258.77114,129.39138 Z m 0,23.73665 a 94.9466,94.9466 0 0 1 94.9466,94.9466 94.9466,94.9466 0 0 1 -94.9466,94.9466 94.9466,94.9466 0 0 1 -94.9466,-94.9466 94.9466,94.9466 0 0 1 94.9466,-94.9466 z m 0,23.73665 a 71.20995,71.20995 0 0 0 -71.20995,71.20995 71.20995,71.20995 0 0 0 71.20995,71.20995 71.20995,71.20995 0 0 0 71.20995,-71.20995 71.20995,71.20995 0 0 0 -71.20995,-71.20995 z m 0,11.86833 a 59.341625,59.341625 0 0 1 59.34163,59.34162 59.341625,59.341625 0 0 1 -59.34163,59.34163 59.341625,59.341625 0 0 1 -59.34162,-59.34163 59.341625,59.341625 0 0 1 59.34162,-59.34162 z"
     style="fill:#ffffff;stroke-width:11.8683;fill-opacity:1"
     id="path7-6" />
</svg>
