<?xml version="1.0" encoding="UTF-8"?>
<svg width="512" height="512" version="1.1" viewBox="0 0 512 512" xmlns="http://www.w3.org/2000/svg">
 <path d="m471.95 253.05c0 120.9-98.01 218.9-218.9 218.9-120.9 0-218.9-98.01-218.9-218.9 0-120.9 98.01-218.9 218.9-218.9 120.9 0 218.9 98.01 218.9 218.9" fill="#2879a7" fill-rule="evenodd"/>
 <path d="m232.92 89.71-24.656 61.663a138.72 86.703 0 0 0-97.834 82.842 138.72 86.703 0 0 0 40.281 61.099l-28.721 71.846h63.582l18.672-50.915a138.72 86.703 0 0 0 44.91 4.6739 138.72 86.703 0 0 0 138.72-86.703 138.72 86.703 0 0 0-34.704-57.328 17.341 17.341 0 0 0 0.0231-0.47397 17.341 17.341 0 0 0-17.341-17.341 17.341 17.341 0 0 0-17.341 17.341 17.341 17.341 0 0 0 17.341 17.341 17.341 17.341 0 0 0 10.07-3.2287 115.6 69.362 0 0 1 18.831 37.91 115.6 69.362 0 0 1-115.6 69.362 115.6 69.362 0 0 1-36.826-3.6126l36.826-100.43 32.784 89.39c18.514-3.5413 34.586-9.8729 46.557-17.815 1.4703-0.97569 2.7932-1.9964 4.1319-3.0029l-71.914-172.62zm-30.052 75.166-43.013 107.59a115.6 69.362 0 0 1-26.305-44.029 115.6 69.362 0 0 1 69.317-63.559zm148.23 141.75c-15.216 9.1485-33.177 16.154-53.038 20.546l14.676 39.987h63.582z" fill="#ffffff" stroke-linejoin="round" stroke-opacity=".45871" stroke-width="23.121"/>
</svg>
