<?xml version="1.0" encoding="UTF-8"?>
<svg version="1.1" viewBox="0 0 48 48" xmlns="http://www.w3.org/2000/svg">
 <defs>
  <linearGradient id="a" x1="1" x2="47" gradientTransform="matrix(0-1 1 0 0 48)" gradientUnits="userSpaceOnUse">
   <stop stop-color="#627ad6" offset="0"/>
   <stop stop-color="#7289da" offset="1"/>
  </linearGradient>
 </defs>
 <path d="m24 1c12.703 0 23 10.297 23 23s-10.297 23-23 23-23-10.297-23-23 10.297-23 23-23" fill="url(#a)"/>
 <path transform="translate(1,1)" d="m20.461 14.651c0 0-3.05-.068-6.256 2.337 0 0-3.205 5.81-3.205 12.978 0 0 1.869 3.227 6.789 3.383 0 0 .826-1 1.493-1.846-2.827-.846-3.896-2.626-3.896-2.626 0 0 .222.156.622.378.022.022.044.044.089.066.067.045.134.067.201.112.557.312 1.113.557 1.625.757.913.356 2 .713 3.271.958 1.67.312 3.628.421 5.765.02 1.046-.178 2.115-.49 3.228-.958.779-.289 1.647-.712 2.56-1.313 0 0-1.112 1.825-4.03 2.649.668.846 1.468 1.803 1.468 1.803C35.11 33.19 37 29.966 37 29.966 37 22.798 33.795 16.988 33.795 16.988 30.589 14.584 27.539 14.651 27.539 14.651l-.31.356c3.784 1.158 5.542 2.827 5.542 2.827-2.315-1.269-4.585-1.891-6.7-2.136-1.603-.178-3.14-.135-4.498.043-.134 0-.245.023-.378.046-.779.067-2.67.356-5.05 1.402-.824.378-1.313.645-1.313.645 0 0 1.847-1.758 5.854-2.916l-.224-.267m-.622 8.303c1.269 0 2.293 1.113 2.271 2.471 0 1.358-1 2.471-2.271 2.471-1.247 0-2.271-1.113-2.271-2.471 0-1.358 1-2.471 2.271-2.471m8.125 0c1.269 0 2.271 1.113 2.271 2.471 0 1.358-1 2.471-2.271 2.471-1.247 0-2.271-1.113-2.271-2.471 0-1.358 1-2.471 2.271-2.471" opacity=".1"/>
 <path d="m20.461 14.651c0 0-3.05-.068-6.256 2.337 0 0-3.205 5.81-3.205 12.978 0 0 1.869 3.227 6.789 3.383 0 0 .826-1 1.493-1.846-2.827-.846-3.896-2.626-3.896-2.626 0 0 .222.156.622.378.022.022.044.044.089.066.067.045.134.067.201.112.557.312 1.113.557 1.625.757.913.356 2 .713 3.271.958 1.67.312 3.628.421 5.765.02 1.046-.178 2.115-.49 3.228-.958.779-.289 1.647-.712 2.56-1.313 0 0-1.112 1.825-4.03 2.649.668.846 1.468 1.803 1.468 1.803C35.11 33.19 37 29.966 37 29.966 37 22.798 33.795 16.988 33.795 16.988 30.589 14.584 27.539 14.651 27.539 14.651l-.31.356c3.784 1.158 5.542 2.827 5.542 2.827-2.315-1.269-4.585-1.891-6.7-2.136-1.603-.178-3.14-.135-4.498.043-.134 0-.245.023-.378.046-.779.067-2.67.356-5.05 1.402-.824.378-1.313.645-1.313.645 0 0 1.847-1.758 5.854-2.916l-.224-.267m-.622 8.303c1.269 0 2.293 1.113 2.271 2.471 0 1.358-1 2.471-2.271 2.471-1.247 0-2.271-1.113-2.271-2.471 0-1.358 1-2.471 2.271-2.471m8.125 0c1.269 0 2.271 1.113 2.271 2.471 0 1.358-1 2.471-2.271 2.471-1.247 0-2.271-1.113-2.271-2.471 0-1.358 1-2.471 2.271-2.471" fill="#f9f9f9"/>
</svg>
