<?xml version="1.0" encoding="UTF-8"?>
<svg width="512" height="512" version="1.1" viewBox="0 0 512 512" xmlns="http://www.w3.org/2000/svg">
 <path d="m471.95 253.05c0 120.9-98.01 218.9-218.9 218.9-120.9 0-218.9-98.01-218.9-218.9 0-120.9 98.01-218.9 218.9-218.9 120.9 0 218.9 98.01 218.9 218.9" fill="#a3c23b" fill-rule="evenodd"/>
 <path d="m133.88 104.33c-13.256 0-23.927 10.674-23.927 23.93v143.57c0 13.256 10.671 23.927 23.927 23.927h167.5c13.256 0 23.927-10.671 23.927-23.927v-143.57c0-13.256-10.671-23.93-23.927-23.93zm0 23.93h167.5v143.57h-167.5zm203.39 11.962v143.57c0 13.256-10.671 23.927-23.927 23.927h-167.49c0 13.256 10.671 23.927 23.927 23.927h167.49c13.256 0 23.93-10.671 23.93-23.927v-143.57c0-13.256-10.674-23.93-23.93-23.93zm35.892 35.892v143.57c0 13.256-10.671 23.93-23.927 23.93h-167.49c0 13.256 10.671 23.927 23.927 23.927h167.49c13.256 0 23.93-10.671 23.93-23.927v-143.57c0-13.256-10.674-23.927-23.93-23.927z" fill="#ffffff" stroke-width="11.964" style="paint-order:normal"/>
</svg>
