<?xml version="1.0" encoding="UTF-8"?>
<svg width="512" height="512" version="1.1" viewBox="0 0 512 512" xmlns="http://www.w3.org/2000/svg">
 <path d="m471.95 253.05c0 120.9-98.01 218.9-218.9 218.9-120.9 0-218.9-98.01-218.9-218.9 0-120.9 98.01-218.9 218.9-218.9 120.9 0 218.9 98.01 218.9 218.9" fill="#2fb94a" fill-rule="evenodd"/>
 <path d="m299.6 100.88c-16.677 0-30.518 4.3427-41.47 11.65-1.5518-0.96262-3.3932-1.4826-5.5354-1.4826-9.49 0-22.799 11.14-23.524 28.005-0.092 0.99805-0.15117 2.0174-0.15117 3.0575 0 2.1929 0.36087 4.0605 0.76019 5.8882h-59.659l58.899 23.557h-107.05a17.669 17.669 0 0 0-16.636-11.776 17.669 17.669 0 0 0-17.669 17.669 17.669 17.669 0 0 0 17.669 17.669c46.334 55.176 53.008 94.237 123.69 94.237 23.559 0 39.73-9.8209 58.899-23.557l11.781 11.776-11.781-5.8882c-6.7694 11.78-22.114 29.45-58.899 29.45-23.559 0-37.769-5.907-47.118-11.781 0 23.559 11.781 11.78 11.781 29.45 0 16.642-17.523 32.389-33.406 44.909 32.123 27.971 73.268 43.398 115.86 43.439 38.226-0.0589 75.404-12.519 105.95-35.502-11.281-33.765-22.434-46.636-23.33-109.88 6.3135 2.3055 11.617 4.0277 11.617 4.0277 0-58.898 11.781-47.122 11.781-94.241 0-39.034-36.916-70.676-82.456-70.676z" fill="#ffffff" stroke-width="11.78" style="paint-order:normal"/>
</svg>
