<?xml version="1.0" encoding="UTF-8"?>
<svg width="512" height="512" version="1.1" viewBox="0 0 512 512" xmlns="http://www.w3.org/2000/svg">
 <path d="m471.95 253.05c0 120.9-98.01 218.9-218.9 218.9-120.9 0-218.9-98.01-218.9-218.9 0-120.9 98.01-218.9 218.9-218.9 120.9 0 218.9 98.01 218.9 218.9" fill="#1793d1" fill-rule="evenodd" style="fill:#43a5a1"/>
 <path d="m256.93 101.03c-0.0927 0-9.2854 15.582-20.434 34.632l-20.276 34.632 4.6703 21.871c2.5676 12.025 4.6433 21.935 4.6129 22.029-0.0295 0.0957-7.7351-13.121-17.129-29.373-9.3942-16.252-17.139-29.547-17.215-29.545-0.075 2e-3 -21.535 35.169-47.68 78.145-22.233 36.544-35.424 58.175-40.682 66.778v22.159h310.8v-18.135c-3.8678-6.2563-19.353-31.617-42.866-70.27-26.216-43.096-47.78-78.477-47.91-78.619-0.17816-0.19499-1.3435 1.6332-4.699 7.3719-2.4547 4.1983-4.5051 7.7921-4.5553 7.9897-0.0516 0.19802 1.9883 10.068 4.5266 21.929 2.5386 11.861 4.5847 21.598 4.541 21.641-0.0441 0.0441-14.81-25.412-32.807-56.575-17.998-31.164-32.801-56.662-32.893-56.662z" style="-inkscape-stroke:none;fill-rule:evenodd;fill:#ffffff;stop-color:#000000"/>
</svg>
