<?xml version="1.0" encoding="UTF-8" standalone="no"?>
<svg
   width="512"
   height="512"
   version="1.1"
   viewBox="0 0 512 512"
   id="svg852"
   sodipodi:docname="solaar.svg"
   inkscape:version="1.1 (c4e8f9ed74, 2021-05-24)"
   xmlns:inkscape="http://www.inkscape.org/namespaces/inkscape"
   xmlns:sodipodi="http://sodipodi.sourceforge.net/DTD/sodipodi-0.dtd"
   xmlns="http://www.w3.org/2000/svg"
   xmlns:svg="http://www.w3.org/2000/svg">
  <defs
     id="defs856" />
  <sodipodi:namedview
     id="namedview854"
     pagecolor="#ffffff"
     bordercolor="#666666"
     borderopacity="1.0"
     inkscape:pageshadow="2"
     inkscape:pageopacity="0.0"
     inkscape:pagecheckerboard="0"
     showgrid="false"
     inkscape:zoom="1.5527344"
     inkscape:cx="121.07673"
     inkscape:cy="256.64403"
     inkscape:window-width="1920"
     inkscape:window-height="1021"
     inkscape:window-x="0"
     inkscape:window-y="0"
     inkscape:window-maximized="1"
     inkscape:current-layer="svg852" />
  <path
     d="m 471.95,253.05 c 0,120.9 -98.01,218.9 -218.9,218.9 -120.9,0 -218.9,-98.01 -218.9,-218.9 0,-120.9 98.01,-218.9 218.9,-218.9 120.9,0 218.9,98.01 218.9,218.9"
     fill="#1793d1"
     id="path824"
     style="fill:#428ba6;fill-opacity:1;fill-rule:evenodd" />
  <g
     id="g39"
     transform="matrix(10.686591,0,0,10.686591,0.9607995,-11.439147)"
     style="fill:#ffffff;fill-opacity:1">
    <g
       id="g37"
       style="fill:#ffffff;fill-opacity:1">
      <g
         id="g35"
         style="fill:#ffffff;fill-opacity:1">
        <path
           d="m 23.355,12.11 c -1.918,0.645 -0.234,3.625 -2.984,5.082 -3.133,1.672 -4.691,-2.543 -6.574,0.465 -1.879,3.01 2.594,2.543 2.473,6.086 -0.125,3.543 -4.563,2.789 -2.898,5.914 1.668,3.121 3.516,-0.98 6.523,0.895 3.01,1.867 0.129,5.332 3.68,5.449 3.543,0.109 0.914,-3.523 4.055,-5.191 3.129,-1.668 4.691,2.543 6.57,-0.465 1.883,-3.01 -2.594,-2.543 -2.473,-6.078 0.129,-3.543 4.563,-2.789 2.898,-5.918 -1.664,-3.121 -3.516,0.977 -6.523,-0.891 -3.01,-1.875 -0.129,-5.336 -3.676,-5.449 -0.445,-0.016 -0.801,0.012 -1.07,0.102 m 0.031,9.02 c 1.586,-0.348 3.137,0.672 3.477,2.27 0.336,1.586 -0.676,3.152 -2.254,3.484 -1.59,0.34 -3.141,-0.672 -3.477,-2.273 -0.336,-1.59 0.672,-3.145 2.254,-3.48 m 0,0"
           style="fill:#ffffff;fill-opacity:1"
           id="path33" />
      </g>
    </g>
  </g>
</svg>
