<?xml version="1.0" encoding="UTF-8"?>
<svg width="512" height="512" version="1.1" viewBox="0 0 512 512" xmlns="http://www.w3.org/2000/svg">
 <path d="m471.95 253.05c0 120.9-98.01 218.9-218.9 218.9-120.9 0-218.9-98.01-218.9-218.9 0-120.9 98.01-218.9 218.9-218.9 120.9 0 218.9 98.01 218.9 218.9" fill="#1a8162" fill-rule="evenodd"/>
 <path d="m386.08 117.04-70.198 29.251v134.55c0 19.574-7.2048 36.431-18.921 48.741-12.794 13.443-30.977 21.457-51.277 21.457-38.89 0-70.198-29.249-70.198-70.198v-76.049l-70.198 29.249v70.198c0 45.782 29.267 85.169 75.271 104.41 19.126 7.9983 41.076 12.591 65.126 12.591 81.898 0 140.4-52.182 140.4-117v-29.249z" fill="#ffffff" stroke-width="11.7" style="paint-order:normal"/>
</svg>
