<?xml version="1.0" encoding="UTF-8"?>
<svg width="512" height="512" version="1.1" viewBox="0 0 512 512" xmlns="http://www.w3.org/2000/svg">
 <path d="m471.95 253.05c0 120.9-98.01 218.9-218.9 218.9-120.9 0-218.9-98.01-218.9-218.9 0-120.9 98.01-218.9 218.9-218.9 120.9 0 218.9 98.01 218.9 218.9" fill="#1793d1" fill-rule="evenodd" style="fill:#7ba922"/>
 <path d="m396.09 331.92h-48.57v-27.648l24.285-12.259z" style="fill:#ffffff;stroke-width:3.5039"/>
 <path d="m371.8 292.01h-48.566l4.8598 21.474 19.425 18.43z" style="fill:#ffffff;stroke-width:3.5039"/>
 <path d="m347.53 331.92h-48.57l9.7161-27.648 14.569-12.259z" style="fill:#ffffff;stroke-width:3.5039"/>
 <path d="m323.25 292.01-24.281-6.174-24.285 6.174 24.285 39.904z" style="fill:#ffffff;stroke-width:3.5039"/>
 <path d="m323.25 291.97h-48.566l11.936-19.614 12.346-20.29z" style="fill:#ffffff;stroke-width:3.5039"/>
 <path d="m396.09 172.19h-48.566v21.389l24.281 18.515z" style="fill:#ffffff;stroke-width:3.5039"/>
 <path d="m371.81 212.09h-48.57l4.8562-27.734 19.425-12.171z" style="fill:#ffffff;stroke-width:3.5039"/>
 <path d="m347.53 172.19h-48.566v21.389l24.281 18.515z" style="fill:#ffffff;stroke-width:3.5039"/>
 <path d="m323.25 212.1-24.281 9.1296-24.285-9.1296 24.285-39.904z" style="fill:#ffffff;stroke-width:3.5039"/>
 <path d="m323.25 212.13h-48.566l4.8598 18.345 19.425 21.56z" style="fill:#ffffff;stroke-width:3.5039"/>
 <path d="m298.95 252.05h-48.566l24.285-39.904z" style="fill:#ffffff;stroke-width:3.5039"/>
 <path d="m274.67 291.98-24.281 12.259-24.288-12.259 24.285-39.904z" style="fill:#ffffff;stroke-width:3.5039"/>
 <path d="m274.67 292.01h-48.57l0.777 25.962 23.508 13.945z" style="fill:#ffffff;stroke-width:3.5039"/>
 <path d="m250.37 331.92h-48.57l4e-3 -27.648 24.281-12.259 11.972 19.669z" style="fill:#ffffff;stroke-width:3.5039"/>
 <path d="m226.1 292.01-24.281-6.174-24.288 6.174 24.285 39.904" style="fill:#ffffff;stroke-width:3.5039"/>
 <path d="m226.1 291.97h-48.566l4.8598-24.604 19.425-15.3z" style="fill:#ffffff;stroke-width:3.5039"/>
 <path d="m201.81 252.08-29.137-12.348-19.432 12.348 24.285 39.904" style="fill:#ffffff;stroke-width:3.5039"/>
 <path d="m201.82 252.05h-48.57l4e-3 -30.785 24.281-9.1262z" style="fill:#ffffff;stroke-width:3.5039"/>
 <path d="m177.67 212.01-24.425-9.3037-24.288 9.3037 24.357 40.024" style="fill:#ffffff;stroke-width:3.5039"/>
 <path d="m177.53 212.09h-48.566l4.8598-18.519 19.425-21.385z" style="fill:#ffffff;stroke-width:3.5039"/>
 <path d="m153.25 172.19h-48.566l24.285 39.904z" style="fill:#ffffff;stroke-width:3.5039"/>
</svg>
