<?xml version="1.0" encoding="UTF-8" standalone="no"?>
<svg
   height="512"
   viewBox="0 0 512 512"
   width="512"
   version="1.1"
   id="svg7"
   sodipodi:docname="zen-browser.svg"
   inkscape:version="1.4.2 (ebf0e940d0, 2025-05-08)"
   xmlns:inkscape="http://www.inkscape.org/namespaces/inkscape"
   xmlns:sodipodi="http://sodipodi.sourceforge.net/DTD/sodipodi-0.dtd"
   xmlns="http://www.w3.org/2000/svg"
   xmlns:svg="http://www.w3.org/2000/svg">
  <defs
     id="defs7" />
  <sodipodi:namedview
     id="namedview7"
     pagecolor="#ffffff"
     bordercolor="#000000"
     borderopacity="0.25"
     inkscape:showpageshadow="2"
     inkscape:pageopacity="0.0"
     inkscape:pagecheckerboard="0"
     inkscape:deskcolor="#d1d1d1"
     inkscape:zoom="0.78515625"
     inkscape:cx="-148.37811"
     inkscape:cy="150.92537"
     inkscape:window-width="1896"
     inkscape:window-height="1005"
     inkscape:window-x="10"
     inkscape:window-y="61"
     inkscape:window-maximized="1"
     inkscape:current-layer="svg7" />
  <path
     d="m471.95 253.05c0 120.9-98.01 218.9-218.9 218.9-120.9 0-218.9-98.01-218.9-218.9 0-120.9 98.01-218.9 218.9-218.9 120.9 0 218.9 98.01 218.9 218.9"
     fill="#1793d1"
     fill-rule="evenodd"
     id="path1"
     style="fill:#e38d41;fill-opacity:1" />
  <path
     d="M 258.77114,70.049751 A 178.02487,178.02487 0 0 0 80.746269,248.07463 178.02487,178.02487 0 0 0 258.77114,426.09951 178.02487,178.02487 0 0 0 436.79602,248.07463 178.02487,178.02487 0 0 0 258.77114,70.049751 Z m 0,35.604979 a 142.4199,142.4199 0 0 1 142.4199,142.4199 142.4199,142.4199 0 0 1 -142.4199,142.4199 142.4199,142.4199 0 0 1 -142.4199,-142.4199 142.4199,142.4199 0 0 1 142.4199,-142.4199 z m 0,23.73665 A 118.68325,118.68325 0 0 0 140.08789,248.07463 118.68325,118.68325 0 0 0 258.77114,366.75788 118.68325,118.68325 0 0 0 377.45439,248.07463 118.68325,118.68325 0 0 0 258.77114,129.39138 Z m 0,23.73665 a 94.9466,94.9466 0 0 1 94.9466,94.9466 94.9466,94.9466 0 0 1 -94.9466,94.9466 94.9466,94.9466 0 0 1 -94.9466,-94.9466 94.9466,94.9466 0 0 1 94.9466,-94.9466 z m 0,23.73665 a 71.20995,71.20995 0 0 0 -71.20995,71.20995 71.20995,71.20995 0 0 0 71.20995,71.20995 71.20995,71.20995 0 0 0 71.20995,-71.20995 71.20995,71.20995 0 0 0 -71.20995,-71.20995 z m 0,11.86833 a 59.341625,59.341625 0 0 1 59.34163,59.34162 59.341625,59.341625 0 0 1 -59.34163,59.34163 59.341625,59.341625 0 0 1 -59.34162,-59.34163 59.341625,59.341625 0 0 1 59.34162,-59.34162 z"
     style="fill:#ffffff;stroke-width:11.8683;fill-opacity:1"
     id="path7-6" />
</svg>
